# xmcd
# 
# Track frame offsets:
#     150
#     14493
#     30051
#     48318
#     66895
#     81070
#     92756
#     108717
#     130309
#     145647
#     167866
#     183067
# 
# Disc length: 2773
# 
# Revision: 0
# Processed by: cddbd v1.5.2PL0 Copyright (c) Steve Scherf et al.
# Submitted via: fre:ac v1.1beta1pre4
# 
DISCID=940ad30c
DTITLE=Tom Rush - At The Unicorn
DYEAR=1986
DGENRE=Folk
TTITLE0=Ramblin' On My Mind
TTITLE1=San Francisco Bay Blues
TTITLE2=The Old 97
TTITLE3=Every Night When The Sun Goes Down
TTITLE4=Walkin' Blues
TTITLE5=I Just Want To Make Love To You
TTITLE6=Poor Man
TTITLE7=Orphan's Blues
TTITLE8=Pretty Boy Floyd
TTITLE9=Julie's Blues
TTITLE10=Talking Dust Bowl
TTITLE11=Old Blue
EXTD=
EXTT0=
EXTT1=
EXTT2=
EXTT3=
EXTT4=
EXTT5=
EXTT6=
EXTT7=
EXTT8=
EXTT9=
EXTT10=
EXTT11=
PLAYORDER=
